<svg data-name="Layer 1" viewBox="0 0 750 750" xmlns="http://www.w3.org/2000/svg"><path d="M310.41 517.86c133.11 0 205.5-109.56 205.5-205.5v-9.79a159.14 159.14 0 0 0 35.23-37.18A162.88 162.88 0 0 1 510 277.16 76.14 76.14 0 0 0 541.35 238a179.78 179.78 0 0 1-45 17.61 69.88 69.88 0 0 0-52.84-23.51 73.54 73.54 0 0 0-72.44 72.44 38.14 38.14 0 0 0 2 15.65 202.33 202.33 0 0 1-148.77-76.3 74.93 74.93 0 0 0-9.78 37.11 77.73 77.73 0 0 0 31.31 60.66 66 66 0 0 1-33.27-9.79 71.54 71.54 0 0 0 58.74 70.46 60.34 60.34 0 0 1-19.57 1.95 33.28 33.28 0 0 1-13.7-1.95 74.14 74.14 0 0 0 68.5 50.88 147.72 147.72 0 0 1-90 31.31 54.14 54.14 0 0 1-17.64-1.91 184.79 184.79 0 0 0 111.55 35.23" data-name="Path 2" fill-rule="evenodd" fill="#1a9fa3" class="fill-000000"></path></svg>