<svg data-name="Layer 1" viewBox="0 0 750 750" xmlns="http://www.w3.org/2000/svg"><g data-name="Instagram"><path d="M375 199.5a562.63 562.63 0 0 1 73.44 2 94.6 94.6 0 0 1 34.68 6.11 71.66 71.66 0 0 1 34.69 34.72 94.61 94.61 0 0 1 6.12 34.68c0 18.36 2 24.48 2 73.44a562.78 562.78 0 0 1-2 73.45 94.65 94.65 0 0 1-6.12 34.68 71.64 71.64 0 0 1-34.68 34.68 94.82 94.82 0 0 1-34.68 6.12c-18.36 0-24.48 2-73.44 2a564.54 564.54 0 0 1-73.45-2 94.78 94.78 0 0 1-34.67-6.13 71.64 71.64 0 0 1-34.68-34.68 94.82 94.82 0 0 1-6.12-34.68c0-18.36-2-24.48-2-73.44a562.73 562.73 0 0 1 2-73.45 94.74 94.74 0 0 1 6.09-34.67 73.36 73.36 0 0 1 14.28-20.43 34.51 34.51 0 0 1 20.43-14.28 94.86 94.86 0 0 1 34.68-6.12 564.54 564.54 0 0 1 73.45-2m0-32.64a604.35 604.35 0 0 0-75.52 2 126 126 0 0 0-44.88 8.16 85.59 85.59 0 0 0-53 53A92.89 92.89 0 0 0 193.4 275a602.34 602.34 0 0 0-2 75.51 602.45 602.45 0 0 0 2 75.52 125.82 125.82 0 0 0 8.16 44.88 85.4 85.4 0 0 0 53 53 126 126 0 0 0 44.88 8.17 606.28 606.28 0 0 0 75.52 2 606.17 606.17 0 0 0 75.51-2 126 126 0 0 0 44.88-8.17 85.6 85.6 0 0 0 53.05-53.05 125.82 125.82 0 0 0 8.2-44.86c0-20.4 2-26.52 2-75.51a602.45 602.45 0 0 0-2-75.52 125.78 125.78 0 0 0-8.21-44.83 85.59 85.59 0 0 0-53-53 126.06 126.06 0 0 0-44.89-8.17 604.14 604.14 0 0 0-75.51-2m0 89.76a92.34 92.34 0 0 0-93.83 90.82v3A93.86 93.86 0 1 0 375 256.62m0 155.06a60.13 60.13 0 0 1-61.21-59v-2.19a60.13 60.13 0 0 1 59-61.21H375a60.13 60.13 0 0 1 61.2 59v2.2a60.13 60.13 0 0 1-59 61.2H375m97.91-181.58a22.45 22.45 0 1 0 22.44 22.44 22.64 22.64 0 0 0-22.44-22.44" data-name="Path 3" fill-rule="evenodd" fill="#1a9fa3" class="fill-000000"></path></g></svg>